<svg width="16" height="16" viewBox="0 0 16 16" fill="none" xmlns="http://www.w3.org/2000/svg">
<g id="icn settings icn-xs" clip-path="url(#clip0_3017_10704)">
<path id="Vector" d="M0.000976562 1.5C0.000976563 1.36739 0.053655 1.24021 0.147423 1.14645C0.241191 1.05268 0.368368 1 0.500977 1H2.00098C2.11251 1.00003 2.22083 1.03735 2.30871 1.10602C2.39659 1.1747 2.45899 1.27078 2.48598 1.379L2.89098 3H14.501C14.5744 3.00007 14.6469 3.0163 14.7133 3.04755C14.7798 3.0788 14.8385 3.12429 14.8854 3.1808C14.9322 3.23731 14.9661 3.30345 14.9845 3.37452C15.0029 3.44558 15.0055 3.51984 14.992 3.592L13.492 11.592C13.4705 11.7066 13.4097 11.8101 13.3201 11.8846C13.2304 11.9591 13.1175 11.9999 13.001 12H4.00098C3.88441 11.9999 3.77154 11.9591 3.68189 11.8846C3.59223 11.8101 3.53142 11.7066 3.50998 11.592L2.01098 3.607L1.61098 2H0.500977C0.368368 2 0.241191 1.94732 0.147423 1.85355C0.053655 1.75979 0.000976563 1.63261 0.000976562 1.5ZM3.10298 4L4.41598 11H12.586L13.899 4H3.10298ZM5.00098 12C4.47054 12 3.96184 12.2107 3.58676 12.5858C3.21169 12.9609 3.00098 13.4696 3.00098 14C3.00098 14.5304 3.21169 15.0391 3.58676 15.4142C3.96184 15.7893 4.47054 16 5.00098 16C5.53141 16 6.04012 15.7893 6.41519 15.4142C6.79026 15.0391 7.00098 14.5304 7.00098 14C7.00098 13.4696 6.79026 12.9609 6.41519 12.5858C6.04012 12.2107 5.53141 12 5.00098 12ZM12.001 12C11.4705 12 10.9618 12.2107 10.5868 12.5858C10.2117 12.9609 10.001 13.4696 10.001 14C10.001 14.5304 10.2117 15.0391 10.5868 15.4142C10.9618 15.7893 11.4705 16 12.001 16C12.5314 16 13.0401 15.7893 13.4152 15.4142C13.7903 15.0391 14.001 14.5304 14.001 14C14.001 13.4696 13.7903 12.9609 13.4152 12.5858C13.0401 12.2107 12.5314 12 12.001 12ZM5.00098 13C5.26619 13 5.52055 13.1054 5.70808 13.2929C5.89562 13.4804 6.00098 13.7348 6.00098 14C6.00098 14.2652 5.89562 14.5196 5.70808 14.7071C5.52055 14.8946 5.26619 15 5.00098 15C4.73576 15 4.48141 14.8946 4.29387 14.7071C4.10633 14.5196 4.00098 14.2652 4.00098 14C4.00098 13.7348 4.10633 13.4804 4.29387 13.2929C4.48141 13.1054 4.73576 13 5.00098 13ZM12.001 13C12.2662 13 12.5205 13.1054 12.7081 13.2929C12.8956 13.4804 13.001 13.7348 13.001 14C13.001 14.2652 12.8956 14.5196 12.7081 14.7071C12.5205 14.8946 12.2662 15 12.001 15C11.7358 15 11.4814 14.8946 11.2939 14.7071C11.1063 14.5196 11.001 14.2652 11.001 14C11.001 13.7348 11.1063 13.4804 11.2939 13.2929C11.4814 13.1054 11.7358 13 12.001 13Z" fill="#23A6F0"/>
</g>
<defs>
<clipPath id="clip0_3017_10704">
<rect width="16" height="16" fill="white" transform="translate(0.000976562)"/>
</clipPath>
</defs>
</svg>
