<svg width="16" height="16" viewBox="0 0 16 16" fill="none" xmlns="http://www.w3.org/2000/svg">
<g id="icn settings icn-xs" clip-path="url(#clip0_3017_10602)">
<path id="Vector" d="M-0.499023 4C-0.499023 3.46957 -0.28831 2.96086 0.086763 2.58579C0.461836 2.21071 0.970544 2 1.50098 2H13.501C14.0314 2 14.5401 2.21071 14.9152 2.58579C15.2903 2.96086 15.501 3.46957 15.501 4V12C15.501 12.5304 15.2903 13.0391 14.9152 13.4142C14.5401 13.7893 14.0314 14 13.501 14H1.50098C0.970544 14 0.461836 13.7893 0.086763 13.4142C-0.28831 13.0391 -0.499023 12.5304 -0.499023 12V4ZM1.50098 3C1.23576 3 0.981406 3.10536 0.79387 3.29289C0.606333 3.48043 0.500977 3.73478 0.500977 4V4.217L7.50098 8.417L14.501 4.217V4C14.501 3.73478 14.3956 3.48043 14.2081 3.29289C14.0205 3.10536 13.7662 3 13.501 3H1.50098ZM14.501 5.383L9.74298 8.238L14.501 11.114V5.384V5.383ZM14.467 12.261L8.77198 8.82L7.50098 9.583L6.22898 8.82L0.534977 12.26C0.592175 12.4724 0.717825 12.6601 0.892464 12.7938C1.0671 12.9276 1.28098 13.0001 1.50098 13H13.501C13.7208 13.0001 13.9346 12.9278 14.1092 12.7942C14.2839 12.6607 14.4096 12.4732 14.467 12.261ZM0.500977 11.114L5.25898 8.238L0.500977 5.383V11.113V11.114Z" fill="white"/>
</g>
<defs>
<clipPath id="clip0_3017_10602">
<rect width="16" height="16" fill="white" transform="translate(0.000976562)"/>
</clipPath>
</defs>
</svg>
