<svg width="16" height="16" viewBox="0 0 16 16" fill="none" xmlns="http://www.w3.org/2000/svg">
<g id="icn settings icn-xs" clip-path="url(#clip0_3017_10699)">
<path id="Vector" d="M11.7429 10.3439C12.7112 9.02254 13.1449 7.38435 12.9572 5.75701C12.7695 4.12966 11.9743 2.63319 10.7307 1.56699C9.48701 0.500777 7.88665 -0.0565401 6.24973 0.00653307C4.61282 0.0696062 3.06008 0.748418 1.90217 1.90716C0.744249 3.06591 0.0665484 4.61913 0.00464653 6.25609C-0.0572553 7.89305 0.501207 9.49302 1.56831 10.7359C2.6354 11.9788 4.13244 12.7729 5.75992 12.9594C7.38739 13.146 9.02528 12.7111 10.3459 11.7419H10.3449C10.3749 11.7819 10.4069 11.8199 10.4429 11.8569L14.2929 15.7069C14.4804 15.8945 14.7348 16 15 16.0001C15.2653 16.0002 15.5198 15.8949 15.7074 15.7074C15.895 15.5198 16.0005 15.2655 16.0006 15.0002C16.0007 14.7349 15.8954 14.4805 15.7079 14.2929L11.8579 10.4429C11.8221 10.4067 11.7837 10.3732 11.7429 10.3429V10.3439ZM12.0009 6.49986C12.0009 7.22213 11.8586 7.93732 11.5822 8.60462C11.3058 9.27191 10.9007 9.87822 10.39 10.3889C9.87926 10.8997 9.27295 11.3048 8.60566 11.5812C7.93837 11.8576 7.22317 11.9999 6.5009 11.9999C5.77863 11.9999 5.06343 11.8576 4.39614 11.5812C3.72885 11.3048 3.12253 10.8997 2.61181 10.3889C2.10109 9.87822 1.69596 9.27191 1.41956 8.60462C1.14316 7.93732 1.0009 7.22213 1.0009 6.49986C1.0009 5.04117 1.58036 3.64222 2.61181 2.61077C3.64326 1.57932 5.04221 0.999856 6.5009 0.999856C7.95959 0.999856 9.35853 1.57932 10.39 2.61077C11.4214 3.64222 12.0009 5.04117 12.0009 6.49986Z" fill="#23A6F0"/>
</g>
<defs>
<clipPath id="clip0_3017_10699">
<rect width="16.0006" height="16.0003" fill="white" transform="translate(0 -0.000244141)"/>
</clipPath>
</defs>
</svg>
